PathFileType	4	(X/Y/Z)	../Python\walking\Walking20\task.trc
DataRate	CameraRate	NumFrames	NumMarkers	Units	OrigDataRate	OrigDataStartFrame	OrigNumFrames
200.000000	200.000000	5	30	mm	200.000000	424	485
Frame#	Time	CLAV			STRN			RASI			LASI			PE01			RTH1			RTH2			RTH3			RTB1			RHEE			RD5M			RTOE			LTH2			LTH3			LTB1			LTB2			LTB3			LHEE			LTOE			LD5M			RTB3			RBAK			RTB2			C7			RPSI			LPSI			PE03			PE02			LTH1			T10			
		X1	Y1	Z1	X2	Y2	Z2	X3	Y3	Z3	X4	Y4	Z4	X5	Y5	Z5	X6	Y6	Z6	X7	Y7	Z7	X8	Y8	Z8	X9	Y9	Z9	X10	Y10	Z10	X11	Y11	Z11	X12	Y12	Z12	X13	Y13	Z13	X14	Y14	Z14	X15	Y15	Z15	X16	Y16	Z16	X17	Y17	Z17	X18	Y18	Z18	X19	Y19	Z19	X20	Y20	Z20	X21	Y21	Z21	X22	Y22	Z22	X23	Y23	Z23	X24	Y24	Z24	X25	Y25	Z25	X26	Y26	Z26	X27	Y27	Z27	X28	Y28	Z28	X29	Y29	Z29	X30	Y30	Z30	

425	2.12	1325.758544921875	1223.054809570313	139.6905822753907	1384.211669921875	1036.964233398438	137.852279663086	1349.249633789063	841.456176757813	252.691619873047	1343.802490234375	841.3698730468755	24.73253059387208	1155.439208984375	916.0631713867192	166.1780548095704	1364.849243164063	552.253845214844	281.7496948242189	1412.80322265625	491.9814147949221	261.6624450683595	1414.838623046875	550.9234619140627	280.9161071777345	1529.599487304688	308.2544860839845	246.4603271484376	1554.978149414063	23.74735832214356	168.0467834472657	1696.847167968751	67.90657806396487	237.9488677978517	1720.754516601563	96.54010009765631	192.8108215332032	1168.187377929688	547.219421386719	13.799147605896	1246.877563476563	560.0379638671877	6.936434745788578	1053.348876953125	293.6591796875001	28.09067916870119	1020.178771972657	222.8063964843751	40.95698165893556	1068.327758789063	235.2631988525392	42.79286193847658	929.3095092773442	58.84342956542972	103.7707290649415	1119.303955078125	30.28159904479982	112.0077133178712	1076.330444335938	16.41256523132325	59.50294113159183	1549.255737304688	231.4580993652345	238.8485717773439	1151.128295898438	1216.928588867188	241.3124237060548	1505.533325195313	251.4740295410157	253.0149078369142	1200.493408203125	1318.125854492188	142.6343688964844	1148.670043945313	876.4688110351567	205.8697509765626	1144.947387695313	884.467163085938	121.2716598510743	1132.89990234375	859.203002929688	137.9713592529297	1135.951782226563	856.3134155273442	188.8062286376954	1209.39208984375	591.8214111328127	-2.292064428329469	1168.90625	1020.578063964844	145.9417419433594	
426	2.125	1333.17626953125	1222.003662109375	140.0262908935547	1391.663940429688	1035.942138671875	138.0818328857422	1356.570922851563	840.7885131835942	252.7717742919923	1351.038818359375	840.0404663085942	24.72488212585451	1162.72509765625	915.281127929688	166.1949310302735	1373.371337890625	552.240905761719	281.6630859375001	1421.622680664063	492.212341308594	261.430633544922	1423.331665039063	551.1844482421877	280.4968872070314	1537.283081054688	307.6881713867189	245.9296264648439	1559.175659179688	23.32151985168458	167.6422576904297	1701.744750976563	65.45146942138675	236.7320556640626	1725.899169921876	93.77297973632815	191.4085845947266	1173.988647460938	546.6384887695315	13.97616863250733	1252.73046875	558.9813232421877	6.965339660644535	1056.976684570313	294.3069152832032	28.01976013183595	1022.907409667969	223.8738861083986	40.86832809448244	1071.176513671875	235.7888336181642	42.81925582885744	929.8231811523442	61.07747268676761	103.3731384277344	1119.428344726563	30.29204750061037	111.9561233520508	1076.396850585938	16.42046356201173	59.49877929687503	1556.110107421876	230.6254272460939	238.1553955078126	1158.3583984375	1215.837646484375	241.4513549804689	1512.68505859375	251.0309448242189	252.5323181152345	1207.788452148438	1317.162109375	142.9464111328126	1155.950439453125	875.7333984375005	205.9837493896486	1152.226440429688	883.555786132813	121.4150924682618	1140.157104492188	858.2888183593755	138.2996520996094	1143.29736328125	855.6303710937505	189.1539001464844	1215.396362304688	591.004821777344	-2.15406370162964	1176.208374023438	1019.604614257813	145.8498535156251	
427	2.13	1340.63134765625	1221.064697265625	140.3754272460938	1399.171630859375	1035.039794921875	138.3358612060547	1363.932006835938	840.252563476563	252.8934783935548	1358.353759765625	838.7555541992192	24.76996421813966	1170.042358398438	914.625122070313	166.1536865234376	1382.176635742188	552.4812622070315	281.6278381347657	1430.6708984375	492.6453552246096	261.252655029297	1432.10302734375	551.679870605469	280.0374755859376	1544.848388671876	307.1304321289064	245.3963623046876	1562.603271484376	22.97770309448243	167.2852325439454	1705.950195312501	62.61564636230472	235.4835052490236	1730.428833007813	90.55120849609378	189.9537811279297	1179.9208984375	546.074645996094	14.18817520141602	1258.708374023438	557.9515380859377	7.067631244659427	1060.757080078125	295.018280029297	27.95298576354982	1025.760864257813	225.0332946777345	40.77533340454103	1074.145385742188	236.3913879394532	42.86059951782228	930.4060058593755	63.48797607421878	102.9470977783204	1119.57763671875	30.30301094055177	111.8941268920899	1076.471313476563	16.42169380187989	59.4943771362305	1562.702270507813	229.7846527099611	237.4535217285157	1165.635620117188	1214.840942382813	241.6075744628907	1519.62255859375	250.6596679687501	252.0531311035157	1215.1171875	1316.289184570313	143.2688293457032	1163.272338867188	875.1403808593755	206.0667877197267	1159.5751953125	882.7487182617192	121.5065612792969	1147.479614257813	857.4777832031255	138.5883178710938	1150.696166992188	855.0773925781255	189.4596710205079	1221.527709960938	590.212097167969	-1.973486661911012	1183.571411132813	1018.728515625	145.7401580810547	
428	2.135	1348.12158203125	1220.242553710938	140.7366943359376	1406.732666015625	1034.261596679688	138.6136627197266	1371.33154296875	839.8516235351567	253.0589752197267	1365.745483398438	837.521606445313	24.87163162231447	1177.389038085938	914.0971069335942	166.0554504394532	1391.240600585938	552.968200683594	281.6520080566407	1439.913940429688	493.2724609375002	261.1299438476564	1441.127075195313	552.4011230468752	279.5455932617189	1552.294921875001	306.597137451172	244.8672790527345	1565.351928710938	22.74723052978516	166.9895324707032	1709.531738281251	59.46854019165042	234.2405548095704	1734.410888671876	86.95133972167972	188.4913330078126	1185.992431640625	545.529235839844	14.43512058258057	1264.818603515625	556.955993652344	7.245950222015384	1064.6982421875	295.8018188476564	27.89343452453615	1028.7470703125	226.2953186035157	40.68064498901369	1077.244384765625	237.0770263671876	42.91414260864259	931.075073242188	66.0885925292969	102.503028869629	1119.75146484375	30.31107711791994	111.8184509277344	1076.545654296875	16.4151954650879	59.49242782592776	1569.056518554688	228.9655303955079	236.7583007812501	1172.958740234375	1213.94287109375	241.7807464599611	1526.365234375	250.3770751953126	251.5911712646486	1222.478149414063	1315.511108398438	143.6007232666016	1170.634399414063	874.691284179688	206.1197967529298	1166.992065429688	882.0486450195317	121.5460891723633	1154.866088867188	856.772338867188	138.8359527587891	1158.144775390625	854.6557006835942	189.7218780517579	1227.794067382813	589.4465332031252	-1.752047061920167	1190.993286132813	1017.954040527344	145.6146850585938	
429	2.14	1355.644775390625	1219.541137695313	141.1085815429688	1414.34423828125	1033.610473632813	138.9141998291016	1378.767700195313	839.588012695313	253.2697906494142	1373.211547851563	836.3457641601567	25.03298759460451	1184.762939453125	913.6979370117192	165.902328491211	1400.532470703125	553.6915283203127	281.7429809570314	1449.31884765625	494.0885009765627	261.0633239746095	1450.373046875	553.341247558594	279.0280761718751	1559.621215820313	306.102752685547	244.3496246337892	1567.517578125001	22.65324592590333	166.7654876708985	1712.559814453126	56.08921051025393	233.0425720214845	1737.911132812501	83.06083679199222	187.0677795410157	1192.213012695313	545.0034790039065	14.71597480773926	1271.069213867188	556.0023193359377	7.499887943267826	1068.809692382813	296.6665344238282	27.84387016296388	1031.875854492188	227.6705322265626	40.58740234375001	1080.485229492188	237.8517913818361	42.97591400146486	931.851928710938	68.89340972900393	102.0528411865235	1119.947387695313	30.31182670593263	111.725685119629	1076.610473632813	16.40039825439454	59.49650955200198	1575.196533203126	228.1957397460939	236.0848693847657	1180.32666015625	1213.147705078125	241.9706115722657	1532.9326171875	250.1979064941407	251.1621093750001	1229.869506835938	1314.831176757813	143.9411773681641	1178.035400390625	874.3864746093755	206.1444702148439	1174.474975585938	881.4573364257817	121.534652709961	1162.314697265625	856.1741333007817	139.0419311523438	1165.639282226563	854.365112304688	189.939682006836	1234.204711914063	588.7117309570315	-1.492445826530457	1198.471313476563	1017.284851074219	145.4758605957032	
